<?xml version="1.0" standalone="no"?>
<!DOCTYPE svg PUBLIC "-//W3C//DTD SVG 20010904//EN"
 "http://www.w3.org/TR/2001/REC-SVG-20010904/DTD/svg10.dtd">
<svg version="1.0" xmlns="http://www.w3.org/2000/svg"
 width="452.000000pt" height="452.000000pt" viewBox="0 0 452.000000 452.000000"
 preserveAspectRatio="xMidYMid meet">
<metadata>
Created by potrace 1.11, written by Peter Selinger 2001-2013
</metadata>
<g transform="translate(0.000000,452.000000) scale(0.100000,-0.100000)"
fill="#000000" stroke="none">
<path d="M4140 4417 c-9 -7 -57 -66 -107 -132 -98 -128 -237 -284 -317 -356
l-49 -44 -176 -1 c-146 -1 -189 -5 -254 -22 -152 -42 -304 -140 -397 -258 -25
-32 -96 -107 -158 -168 -62 -60 -215 -219 -339 -353 -477 -514 -622 -612
-1268 -853 -346 -130 -455 -178 -571 -255 -206 -137 -322 -306 -386 -562 -20
-77 -22 -115 -23 -298 0 -190 2 -218 23 -290 50 -173 138 -322 261 -446 124
-124 279 -214 448 -261 69 -20 103 -22 293 -22 228 0 298 8 503 60 790 199
1619 898 2092 1764 108 199 196 413 244 601 21 80 35 118 55 138 31 32 85 163
117 282 20 72 23 108 23 254 0 177 -5 203 -65 351 -12 31 -11 34 45 108 112
150 229 365 282 523 35 104 25 124 -99 197 -97 57 -145 69 -177 43z m50 -288
c-43 -108 -125 -250 -204 -355 -45 -58 -89 -118 -99 -132 -24 -35 -18 -79 22
-169 67 -153 75 -265 33 -442 l-17 -75 -17 26 c-31 47 -58 145 -58 211 0 53
-4 67 -22 84 -51 46 -95 42 -163 -17 -25 -22 -65 -51 -89 -65 -46 -27 -156
-68 -164 -61 -2 3 7 46 22 96 26 91 66 176 111 239 29 39 31 61 10 101 -25 49
-43 53 -209 46 -83 -4 -167 -9 -186 -12 l-35 -6 33 21 c19 12 67 33 107 46 68
23 87 25 273 25 l200 0 49 38 c107 85 389 393 410 449 3 8 7 12 10 10 2 -3 -6
-29 -17 -58z m-905 -726 c-38 -98 -85 -318 -85 -392 1 -66 35 -101 98 -101 52
0 224 49 300 85 41 19 75 35 77 35 2 0 13 -29 24 -63 12 -35 42 -97 67 -138
l46 -74 -12 -70 c-62 -352 -304 -822 -637 -1240 -113 -142 -417 -447 -558
-559 -507 -405 -1053 -619 -1535 -603 -113 3 -160 9 -215 27 -266 85 -463 283
-547 550 -21 68 -23 93 -22 260 1 213 15 287 83 425 104 211 264 316 751 493
299 109 393 148 533 219 271 138 457 289 767 623 223 239 368 386 449 456 l74
64 81 1 c45 1 110 5 146 9 115 13 123 12 115 -7z"/>
<path d="M2793 2824 c-6 -3 -43 -45 -82 -94 -388 -491 -981 -880 -1600 -1050
-80 -22 -153 -47 -163 -56 -45 -41 -27 -130 32 -154 28 -12 46 -9 170 23 565
148 1093 462 1525 909 176 182 255 286 255 337 0 52 -39 91 -89 90 -20 0 -41
-3 -48 -5z"/>
</g>
</svg>
